<?xml version="1.0" encoding="UTF-8" standalone="no"?>
<!-- Created with Inkscape (http://www.inkscape.org/) -->
<svg
   xmlns:svg="http://www.w3.org/2000/svg"
   xmlns="http://www.w3.org/2000/svg"
   version="1.0"
   width="602.36218"
   height="55.807087"
   id="svg9307">
  <defs
     id="defs9309" />
  <g
     id="layer1">
    <path
       d="M 479.7814,8.8494091 C 473.514,8.8494191 468.4415,13.764389 468.4415,19.847079 C 468.4415,21.367739 468.75746,22.820009 469.33136,24.136609 C 469.33136,24.136609 469.56976,24.973909 470.40375,26.144479 C 471.23772,27.315059 472.65933,28.831799 475.01272,30.183039 C 477.36279,31.530949 478.62455,32.189589 479.48479,32.715689 C 480.34504,33.241799 480.80714,33.617319 481.53831,34.404129 C 482.14783,35.089059 482.51942,35.971479 482.51942,36.936789 C 482.51939,39.107619 480.64119,40.884079 478.34395,40.884079 C 477.13029,40.884059 476.04476,40.392559 475.28651,39.606339 C 475.28651,39.606339 474.72988,39.068979 474.16851,37.803819 C 473.60711,36.538679 473.04521,34.537269 473.0733,31.643309 L 473.0733,31.597679 L 473.02765,31.597679 L 466.45645,31.620489 L 466.43363,31.620489 L 466.43363,31.643309 L 463.12521,45.995019 L 463.12521,46.040659 L 463.17085,46.040659 L 470.67754,46.040659 L 470.70036,46.040659 L 470.70036,46.017839 L 470.99698,44.306589 C 471.25769,44.491429 471.54253,44.664529 471.81838,44.831379 C 471.82755,44.836919 471.83201,44.848659 471.8412,44.854189 C 472.12667,45.025959 472.43058,45.181949 472.73104,45.333339 C 472.74021,45.337979 472.7447,45.351529 472.75387,45.356149 C 473.05488,45.506959 473.35169,45.637629 473.66652,45.766859 C 473.676,45.770789 473.67986,45.785769 473.68934,45.789689 C 474.00523,45.918539 474.34188,46.025889 474.67046,46.131919 C 476.02169,46.575179 477.46512,46.839239 478.98282,46.839239 C 486.19983,46.839229 492.0568,41.494659 492.0568,34.906099 C 492.05682,31.608259 490.58947,28.623579 488.22358,26.463909 C 485.88005,24.565339 481.24168,22.607889 481.24168,22.607889 C 478.89896,21.562029 477.82908,20.264759 477.34001,19.231029 C 476.85097,18.197269 476.92933,17.451309 476.92933,17.451309 L 476.92933,17.428489 C 476.92932,15.462899 478.61438,13.869089 480.69409,13.869089 C 482.11956,13.869069 483.36501,14.633129 484.0025,15.740059 C 484.0025,15.740059 484.45461,16.568829 484.64137,18.021729 C 484.74422,18.723509 484.91488,20.238149 484.48166,22.516619 L 484.48166,22.562239 L 484.52728,22.562239 L 490.71062,22.562239 L 490.75625,22.562239 L 490.75625,22.539439 L 493.47144,9.1460291 L 493.49425,9.1003891 L 493.44862,9.1003891 L 486.48953,9.1003891 L 486.4439,9.1003891 L 486.4439,9.1231991 L 486.14727,10.743189 L 485.7594,10.492199 C 484.02113,9.4468091 481.97651,8.8494091 479.7814,8.8494091 z M 54.683154,8.8950391 C 52.123154,8.9735191 49.884364,9.7344891 48.089124,10.811639 C 45.695464,12.247859 44.095754,14.247099 43.594234,16.013859 C 42.176514,21.002329 40.718044,26.134249 39.350314,32.555989 C 38.777714,35.570889 38.760484,38.619709 39.966374,41.112249 C 41.172274,43.604799 43.618064,45.526289 47.929414,46.314459 C 53.304174,47.296569 56.787964,45.731359 59.041144,43.508009 C 61.294344,41.284659 62.312784,38.412389 62.760274,36.777069 C 65.061054,27.981639 65.565044,24.255869 66.296874,20.166489 C 67.192654,15.163669 63.942884,10.040909 57.329904,9.0547591 C 56.410944,8.9177891 55.536484,8.8688891 54.683154,8.8950391 z M 30.200824,9.1916591 L 30.178004,9.3970091 L 29.767304,11.518949 C 29.385144,11.024439 28.819654,10.547219 27.987594,10.149959 C 26.887674,9.6248191 25.455644,9.2555591 23.857784,9.3057391 C 19.971654,9.4288991 17.402174,10.620799 15.643754,12.591349 C 13.885324,14.561899 12.936294,17.287229 12.244054,20.463119 C 11.139094,25.535159 10.344314,29.534109 8.9812744,35.932849 C 8.4212344,39.108009 9.8871144,42.084379 12.335324,44.124049 C 14.783554,46.163729 18.223584,47.307429 21.644564,46.862059 C 27.161634,46.143529 30.177334,42.675939 31.797994,39.286899 C 32.608324,37.592399 33.069364,35.916059 33.349534,34.586679 C 33.629694,33.257279 33.719904,32.256269 33.760224,32.008359 L 33.805864,31.711769 L 33.532054,31.711769 L 25.774374,31.711769 L 25.569014,31.711769 L 25.546194,31.917109 L 24.519464,36.799889 C 24.166834,38.296419 22.673854,39.150139 20.960054,38.830569 C 19.643214,38.585459 18.719964,37.616759 18.815264,36.389179 C 18.815874,36.381349 18.814574,36.374209 18.815264,36.366369 L 22.055244,19.847079 L 22.032434,19.847079 C 22.422354,18.388119 23.926014,17.490039 25.500574,17.793569 C 27.055874,18.092079 28.090124,19.413049 27.850694,20.896639 C 27.849444,20.904389 27.852014,20.911699 27.850694,20.919449 L 26.823934,25.345899 L 26.755504,25.642509 L 27.074924,25.642509 L 34.672904,25.642509 L 34.855434,25.642509 L 34.901064,25.459979 L 38.323574,9.4882791 L 38.392024,9.1916591 L 38.095404,9.1916591 L 30.406184,9.1916591 L 30.200824,9.1916591 z M 145.28834,9.1916591 L 145.26553,9.2829091 L 143.91935,15.876949 L 143.89652,15.968219 L 143.98778,15.991039 C 144.67865,16.076759 145.33233,16.339249 145.85876,16.949339 C 146.4386,17.622629 146.52436,18.496819 146.33791,19.367909 L 142.98386,36.526079 C 142.85074,37.118729 142.75075,37.463949 142.32217,37.895079 C 141.19694,39.027879 140.30854,39.150009 139.53853,39.150009 L 139.47008,39.150009 L 139.44727,39.241279 L 137.96418,45.880929 L 137.91854,45.995019 L 138.05544,45.995019 L 153.63925,45.995019 L 153.70771,45.995019 L 153.73053,45.926559 L 155.07671,39.264099 L 155.09952,39.150009 L 154.98545,39.150009 C 154.21545,39.150029 153.14662,39.008149 152.47561,37.895079 C 152.22065,37.473629 152.21489,37.101789 152.3387,36.571719 L 152.3387,36.548899 L 155.66995,19.413549 C 155.8623,18.332329 156.23758,17.696259 157.1074,16.972169 C 157.84622,16.360849 158.39565,16.123679 159.36625,15.991039 L 159.4347,15.968219 L 159.45753,15.899769 L 160.66681,9.3057391 L 160.68963,9.1916591 L 160.57555,9.1916591 L 154.87137,9.1916591 L 145.3568,9.1916591 L 145.28834,9.1916591 z M 73.187524,9.2829091 L 73.164704,9.3513691 L 71.818504,15.945399 L 71.795694,16.059489 L 71.909784,16.059489 C 72.482404,16.056529 73.208834,16.309499 73.712294,16.858079 C 74.215774,17.406649 74.511014,18.241399 74.237084,19.436369 L 74.237084,19.459189 L 70.883024,36.594539 C 70.636224,37.378229 70.369964,37.896279 69.856284,38.237339 C 69.342584,38.578389 68.577184,38.739309 67.369244,38.739309 L 67.277984,38.739309 L 67.277984,38.830569 L 65.840524,45.949389 L 65.817724,46.063469 L 65.931794,46.063469 L 82.063214,46.063469 L 82.131674,46.063469 L 82.154494,45.995019 L 83.637564,38.921839 L 83.660384,38.807759 L 83.546304,38.807759 C 82.905634,38.825719 82.084254,38.755709 81.469984,38.465519 C 81.162844,38.320409 80.898544,38.135439 80.739854,37.872269 C 80.581154,37.609119 80.531534,37.278449 80.602944,36.845529 C 80.932614,34.640509 81.901394,30.272329 82.222934,29.042199 C 82.242354,28.968329 82.309464,28.893249 82.451104,28.814049 C 82.592734,28.734849 82.809894,28.660379 83.044334,28.608689 C 83.513214,28.505289 84.113624,28.473319 84.709954,28.540229 C 85.306294,28.607149 85.891624,28.778659 86.307124,29.065019 C 86.722644,29.351379 86.978594,29.740169 86.945994,30.297139 C 86.895514,31.171119 86.483194,33.307599 86.101774,35.225539 C 85.720364,37.143479 85.371654,38.853389 85.371654,38.853389 C 85.371654,38.853389 85.188484,39.618759 85.075024,40.564649 C 84.961574,41.510519 84.894994,42.628719 85.189114,43.348289 C 85.788294,44.816569 87.143784,46.005709 88.406264,46.017839 L 88.429074,46.017839 L 96.437744,46.017839 L 96.506194,46.017839 L 96.529014,45.949389 L 97.920834,38.899039 L 97.943644,38.762119 L 97.829574,38.784939 C 97.167144,38.850079 96.643584,38.845859 96.186764,38.397059 C 95.785354,38.001359 95.650734,37.611329 95.753244,37.073679 L 96.825634,32.031189 L 96.825634,32.008359 C 96.941274,31.051939 96.851954,30.431299 96.460564,29.544169 C 96.002704,28.502469 95.453354,27.922529 94.475514,27.330949 C 97.843764,24.581359 99.557724,21.573759 99.723364,17.496939 C 99.816284,15.213569 98.967644,13.161339 97.761114,11.678679 C 96.554584,10.196029 94.980014,9.2829091 93.631294,9.2829091 C 87.253674,9.2829291 80.481354,9.2766991 73.255964,9.2829091 L 73.187524,9.2829091 z M 109.53456,9.2829091 L 109.51174,9.3513691 L 108.16553,15.945399 L 108.14272,16.059489 L 108.25681,16.059489 C 108.82993,16.056529 109.55552,16.309489 110.05933,16.858079 C 110.56314,17.406659 110.85804,18.241409 110.58411,19.436369 L 110.58411,19.459189 L 107.25288,36.594539 C 107.00608,37.378209 106.717,37.896279 106.2033,38.237339 C 105.68961,38.578399 104.92327,38.739309 103.71627,38.739309 L 103.64784,38.739309 L 103.62502,38.830569 L 102.21039,45.949389 L 102.18757,46.063469 L 102.30164,46.063469 L 118.41024,46.063469 L 118.50152,46.063469 L 118.50152,45.995019 L 120.00742,38.921839 L 120.03023,38.807759 L 119.91615,38.807759 C 119.27453,38.825719 118.43128,38.755709 117.81701,38.465519 C 117.50989,38.320409 117.26833,38.135439 117.1097,37.872269 C 116.95105,37.609119 116.87856,37.278459 116.94998,36.845529 C 117.27964,34.640509 118.24753,30.272179 118.56997,29.042199 C 118.58938,28.968329 118.67932,28.893249 118.82095,28.814049 C 118.96258,28.734849 119.15693,28.660379 119.39137,28.608689 C 119.86022,28.505289 120.48353,28.473319 121.07981,28.540229 C 121.67608,28.607149 122.23879,28.778669 122.65417,29.065019 C 123.06952,29.351369 123.32586,29.740159 123.29303,30.297139 C 123.24208,31.171229 122.85268,33.307599 122.47164,35.225539 C 122.09056,37.143479 121.71867,38.853389 121.71867,38.853389 C 121.71867,38.853389 121.53562,39.618759 121.42206,40.564649 C 121.30849,41.510509 121.26535,42.628729 121.55896,43.348289 C 122.15815,44.816569 123.51362,46.005709 124.77611,46.017839 L 132.78478,46.017839 L 132.87606,46.017839 L 132.87606,45.949389 L 134.29069,38.899039 L 134.31351,38.762119 L 134.1766,38.784939 C 133.51325,38.850079 132.98962,38.845729 132.53379,38.397059 C 132.13234,38.001309 132.0206,37.611229 132.1231,37.073679 L 133.19548,32.031189 L 133.19548,32.008359 C 133.31111,31.051999 133.22181,30.431359 132.83042,29.544169 C 132.37253,28.502429 131.82239,27.922519 130.84536,27.330949 C 134.20363,24.584349 135.90405,21.568229 136.07039,17.496939 C 136.16332,15.213569 135.3148,13.161339 134.10815,11.678679 C 132.90152,10.196029 131.34941,9.2829091 130.00115,9.2829091 C 123.62165,9.2829291 116.82932,9.2766991 109.60299,9.2829091 L 109.53456,9.2829091 z M 167.39774,9.2829091 L 167.37493,9.3513691 L 166.02874,15.945399 L 166.00592,16.059489 L 166.12,16.059489 C 166.87234,16.147079 167.54546,16.446179 167.99098,16.994989 C 168.43649,17.543769 168.65637,18.359229 168.44731,19.459189 L 165.11607,36.594539 C 164.85183,37.805879 163.70998,39.254319 161.64792,39.241279 L 161.57947,39.241279 L 161.55666,39.309719 L 160.07358,45.949389 L 160.02794,46.063469 L 160.16483,46.063469 L 186.31279,46.063469 L 186.38125,46.063469 L 186.40407,45.995019 L 189.16488,32.875409 L 189.1877,32.761319 L 189.07363,32.761319 L 183.93987,32.761319 L 183.87141,32.761319 L 183.84859,32.806949 C 183.16569,34.687119 182.67731,36.534239 181.88636,37.895079 C 181.09541,39.255929 180.02891,40.131119 178.16723,40.131119 C 176.35575,40.131119 175.41731,39.417709 174.92725,38.625219 C 174.4372,37.832709 174.40508,36.954159 174.4481,36.640169 L 175.52049,31.164149 L 175.52049,31.141339 C 175.64213,30.449859 176.22729,29.941649 176.98076,29.977689 C 177.40573,29.999059 177.77409,30.135859 178.00751,30.388379 C 178.24094,30.640919 178.34256,31.019969 178.28132,31.574859 L 178.30414,31.574859 C 178.29881,31.600329 177.84148,33.741219 177.52836,35.225539 L 177.50554,35.339619 L 177.61963,35.339619 L 180.74552,35.339619 L 180.81396,35.339619 L 180.83678,35.248349 L 183.73451,20.919449 L 183.75732,20.805359 L 183.64324,20.805359 L 180.60861,20.805359 L 180.54017,20.805359 L 180.51736,20.873819 C 180.16385,22.073829 180.12318,22.915879 179.71877,24.501679 C 179.6056,24.948859 179.41027,25.398169 179.14834,25.710959 C 178.88643,26.023749 178.5434,26.213349 178.07597,26.212929 C 177.56905,26.212279 177.24346,26.093289 177.02639,25.916319 C 176.80933,25.739329 176.71256,25.496699 176.66133,25.254619 C 176.55885,24.770479 176.70696,24.273509 176.70696,24.273509 L 177.77934,19.481999 C 178.09218,18.118019 178.81086,17.281569 179.65032,16.766809 C 180.48978,16.252049 181.46145,16.056869 182.29705,16.059489 C 183.98333,16.066049 184.85193,16.837819 185.35449,17.998919 C 185.85706,19.159999 185.9721,20.737489 186.08463,22.265649 L 186.08463,22.334089 L 186.17589,22.334089 L 191.14995,22.334089 L 191.21839,22.334089 L 191.24121,22.265649 L 193.86513,9.3970091 L 193.88794,9.2829091 L 193.77387,9.2829091 L 167.46619,9.2829091 L 167.39774,9.2829091 z M 199.72903,9.2829091 L 199.70621,9.3513691 L 198.36002,15.945399 L 198.33721,16.059489 L 198.45129,16.059489 C 199.0249,16.056529 199.75,16.309489 200.25381,16.858079 C 200.75762,17.406659 201.05207,18.241399 200.7786,19.436369 L 200.7786,19.459189 L 197.42455,36.594539 C 197.17775,37.378229 196.88855,37.896279 196.37497,38.237339 C 195.86141,38.578389 195.11823,38.739309 193.91076,38.739309 L 193.81949,38.739309 L 193.81949,38.830569 L 192.38204,45.949389 L 192.35922,46.063469 L 192.47331,46.063469 L 208.60473,46.063469 L 208.67318,46.063469 L 208.696,45.995019 L 210.17908,38.921839 L 210.20191,38.807759 L 210.08782,38.807759 C 209.44715,38.825719 208.62576,38.755709 208.01149,38.465519 C 207.70436,38.320409 207.43988,38.135409 207.28136,37.872269 C 207.12285,37.609139 207.07258,37.278439 207.14447,36.845529 C 207.47318,34.640579 208.4429,30.272379 208.76446,29.042199 C 208.78377,28.968349 208.85105,28.893229 208.99261,28.814049 C 209.13419,28.734859 209.35143,28.660379 209.58586,28.608689 C 210.05467,28.505289 210.65508,28.473319 211.25147,28.540229 C 211.84786,28.607149 212.43305,28.778659 212.84864,29.065019 C 213.26422,29.351379 213.52012,29.740169 213.48751,30.297139 C 213.4361,31.171289 213.02447,33.307579 212.6433,35.225539 C 212.26211,37.143479 211.91315,38.853389 211.91315,38.853389 C 211.91315,38.853389 211.73012,39.618759 211.61654,40.564649 C 211.50296,41.510509 211.437,42.628729 211.73062,43.348289 C 212.3298,44.816569 213.68528,46.005709 214.94778,46.017839 L 222.97926,46.017839 L 223.04772,46.017839 L 223.07054,45.949389 L 224.46236,38.899039 L 224.48518,38.762119 L 224.37108,38.784939 C 223.70771,38.850079 223.16228,38.845859 222.70546,38.397059 C 222.304,38.001309 222.19227,37.611229 222.29476,37.073679 L 223.36715,32.031189 L 223.36715,32.008359 C 223.48278,31.051999 223.39253,30.431319 223.00209,29.544169 C 222.54331,28.502499 221.99486,27.922539 221.01702,27.330949 C 224.38497,24.581439 226.09831,21.573549 226.26487,17.496939 C 226.35733,15.213579 225.48634,13.161339 224.27982,11.678679 C 223.07329,10.196029 221.52109,9.2829091 220.1728,9.2829091 C 213.79427,9.2829291 207.02192,9.2766991 199.79748,9.2829091 L 199.72903,9.2829091 z M 234.86677,9.2829091 L 234.84394,9.3513691 L 233.49777,15.945399 L 233.47495,16.059489 L 233.56622,16.059489 C 234.31855,16.147079 235.01415,16.446169 235.46,16.994989 C 235.90587,17.543779 236.12587,18.359259 235.91634,19.459189 L 232.56228,36.594539 C 232.29712,37.805979 231.179,39.254319 229.11696,39.241279 L 229.02569,39.241279 L 229.02569,39.309719 L 227.51979,45.949389 L 227.49697,46.063469 L 227.61105,46.063469 L 253.78184,46.063469 L 253.85028,46.063469 L 253.87308,45.995019 L 256.63393,32.875409 L 256.65674,32.761319 L 256.54266,32.761319 L 251.4089,32.761319 L 251.34044,32.761319 L 251.31763,32.806949 C 250.63519,34.687109 250.12363,36.534239 249.33258,37.895079 C 248.54152,39.255929 247.47512,40.131119 245.61345,40.131119 C 243.80244,40.131119 242.88635,39.417719 242.39629,38.625219 C 241.90624,37.832699 241.87452,36.954309 241.91714,36.640169 L 242.96669,31.164149 L 242.96669,31.141339 C 243.08743,30.450019 243.69631,29.941649 244.44978,29.977689 C 244.87525,29.999059 245.22044,30.135869 245.45373,30.388379 C 245.6828,30.636329 245.80395,31.013349 245.75036,31.552039 C 245.74938,31.561969 245.75146,31.564809 245.75036,31.574859 C 245.74504,31.600389 245.31143,33.741319 244.9974,35.225539 L 244.97459,35.339619 L 245.08865,35.339619 L 248.21455,35.339619 L 248.28299,35.339619 L 248.30582,35.248349 L 251.20354,20.919449 L 251.22636,20.805359 L 251.11227,20.805359 L 248.05482,20.805359 L 247.98638,20.805359 L 247.96357,20.873819 C 247.60914,22.073799 247.56753,22.915819 247.16499,24.501679 C 247.05135,24.948929 246.87919,25.398169 246.61738,25.710959 C 246.35558,26.023749 246.01244,26.213349 245.545,26.212929 C 245.03783,26.212279 244.71253,26.093289 244.49543,25.916319 C 244.27833,25.739329 244.18156,25.496689 244.13037,25.254619 C 244.028,24.770499 244.15319,24.273509 244.15319,24.273509 L 245.24837,19.481999 C 245.56121,18.118029 246.27989,17.281579 247.11935,16.766809 C 247.95882,16.252039 248.93142,16.056869 249.76609,16.059489 C 251.45237,16.066049 252.32108,16.837819 252.82353,17.998919 C 253.32597,19.159999 253.44067,20.737479 253.55367,22.265649 L 253.55367,22.334089 L 253.64493,22.334089 L 258.59616,22.334089 L 258.68742,22.334089 L 258.68742,22.265649 L 261.33416,9.3970091 L 261.35697,9.2829091 L 261.24288,9.2829091 L 234.93522,9.2829091 L 234.86677,9.2829091 z M 288.25789,9.2829091 L 288.23508,9.3513691 L 286.88889,15.945399 L 286.86607,16.059489 L 286.98015,16.059489 C 287.37291,16.106119 288.10768,16.320389 288.66859,16.835259 C 289.22951,17.350129 289.62214,18.149729 289.30746,19.436369 L 289.30746,19.459189 L 285.97622,36.594539 C 285.62133,38.132659 284.10516,39.241279 282.50808,39.241279 L 282.43962,39.241279 L 282.41681,39.309719 L 280.93372,45.949389 L 280.91091,46.063469 L 281.02499,46.063469 L 298.75359,46.063469 C 303.66051,46.060789 306.44426,44.217289 308.0628,42.024919 C 309.68135,39.832559 310.14073,37.298159 310.43574,35.932849 C 312.27643,26.981699 312.65534,24.600149 313.37909,20.508749 C 314.34524,15.047719 310.28606,9.2775591 302.29017,9.2829091 L 288.32635,9.2829091 L 288.25789,9.2829091 z M 320.06439,9.2829091 L 320.04158,9.3513691 L 318.69539,15.945399 L 318.67258,16.059489 L 318.78666,16.059489 C 319.53852,16.147079 320.21165,16.446169 320.65763,16.994989 C 321.10361,17.543789 321.32348,18.359279 321.11396,19.459189 L 317.78273,36.594539 C 317.51849,37.805929 316.3776,39.254319 314.31458,39.241279 L 314.24613,39.241279 L 314.22331,39.309719 L 312.74023,45.949389 L 312.71741,46.063469 L 312.8315,46.063469 L 338.97945,46.063469 L 339.07072,46.063469 L 339.07072,45.995019 L 341.83154,32.875409 L 341.85436,32.761319 L 341.74026,32.761319 L 336.6065,32.761319 L 336.53807,32.761319 L 336.51525,32.806949 C 335.83282,34.687109 335.34396,36.534239 334.55301,37.895079 C 333.76205,39.255929 332.69509,40.131119 330.83388,40.131119 C 329.02242,40.131119 328.08409,39.417709 327.59391,38.625219 C 327.10372,37.832709 327.07213,36.954309 327.11476,36.640169 L 328.18716,31.164149 L 328.18716,31.141339 C 328.30788,30.449939 328.89196,29.941649 329.64742,29.977689 C 330.07287,29.999059 330.44138,30.135929 330.67417,30.388379 C 330.90276,30.636279 331.02529,31.013339 330.97078,31.552039 C 330.96978,31.561969 330.97191,31.564809 330.97078,31.574859 C 330.96548,31.600329 330.50721,33.741229 330.19501,35.225539 L 330.1722,35.339619 L 330.28628,35.339619 L 333.41218,35.339619 L 333.50344,35.339619 L 333.50344,35.248349 L 336.40117,20.919449 L 336.42397,20.805359 L 336.3099,20.805359 L 333.27527,20.805359 L 333.20682,20.805359 L 333.18401,20.873819 C 332.83054,22.073779 332.7889,22.915829 332.38542,24.501679 C 332.27132,24.948959 332.07685,25.398149 331.815,25.710959 C 331.55316,26.023769 331.23239,26.213349 330.76543,26.212929 C 330.25827,26.212279 329.91034,26.093319 329.69305,25.916319 C 329.47574,25.739309 329.37938,25.496699 329.32798,25.254619 C 329.22517,24.770479 329.37361,24.273509 329.37361,24.273509 L 330.44601,19.481999 C 330.75789,18.118069 331.47692,17.281589 332.31696,16.766809 C 333.15702,16.252039 334.12858,16.056869 334.96371,16.059489 C 336.64949,16.066049 337.51835,16.837809 338.02116,17.998919 C 338.52396,19.160009 338.63828,20.737489 338.75129,22.265649 L 338.75129,22.334089 L 338.84255,22.334089 L 343.81659,22.334089 L 343.88505,22.334089 L 343.90787,22.265649 L 346.53179,9.3970091 L 346.5546,9.2829091 L 346.44052,9.2829091 L 320.13285,9.2829091 L 320.06439,9.2829091 z M 351.80245,9.2829091 L 351.80245,9.3513691 L 350.43344,15.945399 L 350.41062,16.059489 L 350.5247,16.059489 C 351.56083,16.176829 352.21026,16.626469 352.57822,17.245959 C 352.94617,17.865439 353.0215,18.655589 352.85201,19.436369 L 352.85201,19.459189 L 349.52078,36.594539 C 349.14432,38.165819 347.72746,39.400729 346.07545,39.241279 L 345.98419,39.241279 L 345.96138,39.309719 L 344.47828,45.949389 L 344.45547,46.063469 L 344.56955,46.063469 L 370.71751,46.063469 L 370.80878,46.063469 L 370.83159,45.995019 L 373.5696,32.875409 L 373.59241,32.761319 L 373.47832,32.761319 L 372.86228,32.761319 L 368.34456,32.761319 L 368.27612,32.761319 L 368.2533,32.806949 C 367.56922,34.687749 367.0834,36.614679 366.29106,38.009169 C 365.49872,39.403659 364.42601,40.264269 362.57194,40.131119 C 361.09909,40.025419 360.21605,39.516139 359.69703,39.035929 C 359.17801,38.555689 359.03535,38.123259 359.03535,38.123259 C 358.76996,37.509109 358.74769,37.232779 358.80718,36.640169 L 362.13843,19.481999 C 362.47492,17.931439 363.50758,16.416589 365.85755,16.059489 L 365.92598,16.059489 L 365.92598,15.991039 L 367.1581,9.3970091 L 367.1581,9.2829091 L 367.04402,9.2829091 L 351.89372,9.2829091 L 351.80245,9.2829091 z M 382.21712,9.2829091 L 382.19431,9.3513691 L 380.84812,15.945399 L 380.8253,16.059489 L 380.91658,16.059489 C 381.95128,16.176819 382.6247,16.626429 382.9929,17.245959 C 383.36111,17.865489 383.43572,18.655609 383.2667,19.436369 L 383.2667,19.459189 L 379.91264,36.594539 C 379.53712,38.165819 378.12419,39.400759 376.46732,39.241279 L 376.37605,39.241279 L 376.37605,39.309719 L 374.87014,45.949389 L 374.84733,46.063469 L 374.96142,46.063469 L 401.13219,46.063469 L 401.20065,46.063469 L 401.22346,45.995019 L 403.98428,32.875409 L 404.00709,32.761319 L 403.89301,32.761319 L 403.25414,32.761319 L 398.73644,32.761319 L 398.6908,32.761319 L 398.66799,32.806949 C 397.98533,34.687729 397.47525,36.614679 396.68293,38.009169 C 395.89061,39.403659 394.84021,40.264269 392.98662,40.131119 C 391.51378,40.025419 390.63099,39.516159 390.11171,39.035929 C 389.59244,38.555689 389.42721,38.123259 389.42721,38.123259 C 389.1636,37.508909 389.13958,37.232589 389.19905,36.640169 L 392.5531,19.481999 C 392.8934,17.931089 393.89851,16.416589 396.24941,16.059489 L 396.31786,16.059489 L 396.31786,15.991039 L 397.54996,9.3970091 L 397.57277,9.2829091 L 397.4587,9.2829091 L 382.28557,9.2829091 L 382.21712,9.2829091 z M 500.29364,9.2829091 L 500.27082,9.3513691 L 498.92464,15.945399 L 498.90182,16.059489 L 498.99308,16.059489 C 499.74592,16.147089 500.44103,16.446189 500.88687,16.994989 C 501.33273,17.543769 501.55318,18.359259 501.34322,19.459189 L 497.98914,36.594539 C 497.72118,37.806369 496.60971,39.254319 494.54383,39.241279 L 494.45256,39.241279 L 494.45256,39.309719 L 492.94666,45.949389 L 492.92383,46.063469 L 493.03793,46.063469 L 519.2087,46.063469 L 519.27714,46.063469 L 519.29996,45.995019 L 522.03797,32.875409 L 522.0608,32.761319 L 521.9467,32.761319 L 516.81294,32.761319 L 516.76731,32.761319 L 516.7445,32.806949 C 516.06301,34.687099 515.55014,36.534239 514.75943,37.895079 C 513.96873,39.255929 512.90152,40.131119 511.04031,40.131119 C 509.22836,40.131119 508.29097,39.417739 507.80034,38.625219 C 507.30971,37.832689 507.27898,36.954449 507.32119,36.640169 L 508.39358,31.164149 L 508.39358,31.141339 C 508.51701,30.449749 509.12518,29.941669 509.87665,29.977689 C 510.30259,29.999059 510.64742,30.135869 510.8806,30.388379 C 511.10955,30.636329 511.22997,31.013289 511.17722,31.552039 C 511.17624,31.561969 511.17831,31.564809 511.17722,31.574859 C 511.17186,31.600389 510.73741,33.741209 510.42426,35.225539 L 510.37863,35.339619 L 510.51552,35.339619 L 513.64142,35.339619 L 513.70988,35.339619 L 513.73268,35.248349 L 516.63042,20.919449 L 516.63042,20.805359 L 516.51633,20.805359 L 513.48171,20.805359 L 513.41324,20.805359 L 513.39043,20.873819 C 513.03601,22.073759 512.99442,22.915779 512.59184,24.501679 C 512.4782,24.948899 512.30631,25.398159 512.04425,25.710959 C 511.78219,26.023759 511.43931,26.213349 510.97186,26.212929 C 510.46494,26.212279 510.13947,26.093299 509.9223,25.916319 C 509.70513,25.739319 509.58575,25.496699 509.53441,25.254619 C 509.43171,24.770469 509.58004,24.273509 509.58004,24.273509 L 510.67524,19.481999 C 510.98806,18.118049 511.68335,17.281589 512.52339,16.766809 C 513.36345,16.252039 514.35783,16.056869 515.19296,16.059489 C 516.87875,16.066049 517.72489,16.837819 518.22758,17.998919 C 518.73027,19.159999 518.84519,20.737509 518.95771,22.265649 L 518.98053,22.334089 L 519.0718,22.334089 L 524.02303,22.334089 L 524.11429,22.334089 L 524.11429,22.265649 L 526.76104,9.3970091 L 526.78385,9.2829091 L 526.66976,9.2829091 L 500.36209,9.2829091 L 500.29364,9.2829091 z M 532.07733,9.2829091 L 532.05452,9.3513691 L 530.70832,15.945399 L 530.6855,16.059489 L 530.79959,16.059489 C 531.37272,16.056529 532.09843,16.309509 532.60211,16.858079 C 533.1058,17.406649 533.40128,18.241409 533.12691,19.436369 L 533.12691,19.459189 L 529.77284,36.594539 C 529.52556,37.378259 529.25931,37.896289 528.74608,38.237339 C 528.23286,38.578379 527.46559,38.739309 526.25907,38.739309 L 526.19062,38.739309 L 526.1678,38.830569 L 524.73035,45.949389 L 524.70753,46.063469 L 524.82161,46.063469 L 540.95303,46.063469 L 541.02148,46.063469 L 541.0443,45.995019 L 542.52738,38.921839 L 542.55021,38.807759 L 542.43611,38.807759 C 541.79688,38.825719 540.97407,38.755709 540.3598,38.465519 C 540.05266,38.320399 539.78833,38.135429 539.62966,37.872269 C 539.47097,37.609129 539.42111,37.278439 539.49275,36.845529 C 539.82242,34.640489 540.78675,30.271549 541.11276,29.042199 C 541.13191,28.968409 541.22237,28.893219 541.36372,28.814049 C 541.50509,28.734869 541.69988,28.660379 541.93416,28.608689 C 542.40268,28.505299 543.00355,28.473319 543.59976,28.540229 C 544.19597,28.607149 544.78152,28.778669 545.19695,29.065019 C 545.61236,29.351369 545.86863,29.740169 545.8358,30.297139 C 545.78578,31.171049 545.39594,33.307609 545.0144,35.225539 C 544.63287,37.143469 544.26145,38.853389 544.26145,38.853389 C 544.26145,38.853389 544.07829,39.618769 543.96484,40.564649 C 543.85139,41.510509 543.78583,42.628759 544.07892,43.348289 C 544.67907,44.816519 546.0573,46.005709 547.31889,46.017839 L 555.32756,46.017839 L 555.39602,46.017839 L 555.41883,45.949389 L 556.81065,38.899039 L 556.85629,38.762119 L 556.71937,38.784939 C 556.05696,38.850079 555.53436,38.845929 555.07658,38.397059 C 554.67691,38.001309 554.53968,37.611179 554.64305,37.073679 L 555.71545,32.031189 L 555.71545,32.008359 C 555.83396,31.051789 555.74079,30.431219 555.35037,29.544169 C 554.88993,28.496609 554.35289,27.925739 553.36533,27.330949 C 556.73448,24.581349 558.44661,21.573739 558.61317,17.496939 C 558.70609,15.213569 557.85804,13.161339 556.65094,11.678679 C 555.44383,10.196029 553.86937,9.2829091 552.52111,9.2829091 C 546.14163,9.2829291 539.37116,9.2766991 532.14576,9.2829091 L 532.07733,9.2829091 z M 421.27934,9.4426491 L 421.25654,9.5110891 L 410.94337,35.910029 C 410.50152,36.928839 409.96865,37.828019 409.23212,38.465519 C 408.49559,39.102999 407.55045,39.461399 406.22031,39.400989 L 406.15186,39.400989 L 406.12906,39.492259 L 404.62315,46.131919 L 404.60034,46.246009 L 404.71441,46.246009 L 419.1574,46.246009 L 419.22585,46.246009 L 419.24866,46.177559 L 420.57204,39.515079 L 420.59485,39.400989 L 420.48076,39.400989 L 417.65149,39.423809 C 417.05537,39.423789 416.69728,38.920429 416.83008,38.465519 C 417.20744,37.165809 417.65807,36.135969 417.92529,35.499339 L 425.50044,35.499339 C 425.87758,36.726529 426.34466,37.852149 426.34466,38.556759 C 426.34466,38.726219 426.30031,38.860849 426.20776,38.967479 C 426.1152,39.074099 425.98521,39.153219 425.81987,39.218469 C 425.48919,39.348949 425.03097,39.409309 424.63341,39.423809 L 422.60272,39.400989 L 422.53427,39.400989 L 422.51145,39.492259 L 421.25654,46.131919 L 421.23372,46.246009 L 421.34779,46.246009 L 438.2778,46.246009 L 438.34626,46.246009 L 438.36908,46.177559 L 439.57835,39.583529 L 439.60117,39.469439 L 439.48709,39.469439 C 437.95305,39.461889 437.07212,39.461819 436.45247,39.058749 C 435.83281,38.655659 435.41966,37.834369 434.87811,36.092569 L 428.21563,9.5567291 L 428.21563,9.4654591 L 428.12437,9.4654591 L 421.34779,9.4426491 L 421.27934,9.4426491 z M 575.1781,9.4426491 L 575.15528,9.5110891 L 564.84214,35.910029 C 564.40171,36.928799 563.89044,37.828029 563.1537,38.465519 C 562.41695,39.102989 561.45061,39.461399 560.11907,39.400989 L 560.05062,39.400989 L 560.0278,39.492259 L 558.54471,46.131919 L 558.52189,46.246009 L 558.63598,46.246009 L 573.05615,46.246009 L 573.1246,46.246009 L 573.14742,46.177559 L 574.4936,39.515079 L 574.51642,39.400989 L 574.40233,39.400989 L 571.55025,39.423809 C 570.95309,39.423789 570.59599,38.920519 570.72884,38.465519 C 571.1081,37.165639 571.55362,36.135289 571.82404,35.499339 L 579.42202,35.499339 C 579.79495,36.726849 580.26624,37.852379 580.26624,38.556759 C 580.26624,38.726129 580.19944,38.860819 580.10652,38.967479 C 580.01359,39.074129 579.88436,39.153209 579.71864,39.218469 C 579.38718,39.348999 578.95065,39.409319 578.55497,39.423809 L 576.5243,39.400989 L 576.43303,39.400989 L 576.43303,39.492259 L 575.15528,46.131919 L 575.13247,46.246009 L 575.24656,46.246009 L 592.17656,46.246009 L 592.26781,46.246009 L 592.26781,46.177559 L 593.47712,39.583529 L 593.49993,39.469439 L 593.38585,39.469439 C 591.85132,39.461889 590.97052,39.461799 590.35122,39.058749 C 589.73193,38.655679 589.34122,37.834389 588.79968,36.092569 L 582.11439,9.5567291 L 582.11439,9.4654591 L 582.04593,9.4654591 L 575.24656,9.4426491 L 575.1781,9.4426491 z M 86.558104,16.333299 C 86.691674,16.326279 86.817744,16.323119 86.945994,16.333299 C 88.039484,16.420439 88.917354,16.857089 89.227664,17.793569 C 89.444194,18.567579 89.236384,19.693469 89.022324,21.056349 C 88.923624,21.685289 88.667284,22.413659 88.292184,22.972959 C 87.917074,23.532259 87.420374,23.908439 86.854734,23.908439 L 83.204054,23.908439 C 83.209244,23.869789 83.217014,23.832319 83.226854,23.771549 C 83.253004,23.610269 83.288554,23.369419 83.340954,23.087039 C 83.445744,22.522269 83.594544,21.777979 83.751664,20.987899 C 84.064044,19.417019 84.421164,17.732009 84.527434,17.291599 C 84.600834,17.054179 84.934354,16.771279 85.394454,16.584269 C 85.739554,16.444019 86.157434,16.354319 86.558104,16.333299 z M 122.90513,16.333299 C 123.03866,16.326279 123.16489,16.323119 123.29303,16.333299 C 124.38746,16.420439 125.28626,16.856989 125.59752,17.793569 C 125.81317,18.567639 125.5825,19.693439 125.36935,21.056349 C 125.26972,21.685379 125.01432,22.413649 124.63921,22.972959 C 124.26409,23.532269 123.79022,23.908439 123.22458,23.908439 L 119.55109,23.908439 C 119.55631,23.869769 119.56404,23.832329 119.57391,23.771549 C 119.6001,23.610259 119.65839,23.369429 119.7108,23.087039 C 119.81564,22.522259 119.96438,21.777979 120.1215,20.987899 C 120.4339,19.417049 120.76778,17.731819 120.87445,17.291599 C 120.94742,17.054389 121.28113,16.771279 121.74149,16.584269 C 122.08674,16.444019 122.5046,16.354319 122.90513,16.333299 z M 213.09962,16.333299 C 213.23322,16.326279 213.35913,16.323119 213.48751,16.333299 C 214.581,16.420439 215.45792,16.856989 215.76917,17.793569 C 215.98569,18.567509 215.77696,19.693389 215.56383,21.056349 C 215.46468,21.685329 215.20892,22.413659 214.8337,22.972959 C 214.45846,23.532259 213.9619,23.908439 213.39625,23.908439 L 209.74557,23.908439 C 209.75083,23.869749 209.75849,23.832329 209.76839,23.771549 C 209.79465,23.610229 209.83002,23.369429 209.88247,23.087039 C 209.98738,22.522259 210.13605,21.777979 210.29317,20.987899 C 210.60556,19.417019 210.96189,17.731559 211.06893,17.291599 C 211.14192,17.054289 211.47587,16.771279 211.93597,16.584269 C 212.28105,16.444019 212.69887,16.354319 213.09962,16.333299 z M 545.44792,16.333299 C 545.5814,16.326279 545.70779,16.323119 545.8358,16.333299 C 546.93119,16.420439 547.80529,16.856869 548.11747,17.793569 C 548.33228,18.567769 548.12621,19.693509 547.91212,21.056349 C 547.81344,21.685269 547.55754,22.413669 547.18199,22.972959 C 546.80642,23.532249 546.31121,23.908439 545.74453,23.908439 L 542.09387,23.908439 C 542.09917,23.869729 542.10674,23.832339 542.11669,23.771549 C 542.14307,23.610209 542.17821,23.369429 542.23076,23.087039 C 542.33588,22.522239 542.48428,21.777989 542.64147,20.987899 C 542.95397,19.417009 543.31099,17.731979 543.41724,17.291599 C 543.49059,17.054309 543.82367,16.771289 544.28426,16.584269 C 544.62972,16.444019 545.0475,16.354319 545.44792,16.333299 z M 54.569074,17.086249 C 54.776904,17.087869 54.973214,17.113729 55.185134,17.154699 C 56.866264,17.477159 58.018124,18.925089 57.740594,20.554379 L 54.089914,36.480439 C 53.676424,38.276779 51.954424,39.089619 50.233904,38.716479 C 48.524624,38.345139 47.415894,37.246399 47.815334,35.385259 C 49.354894,28.200899 50.817794,22.483189 51.443184,19.390739 C 51.814824,18.000079 53.114264,17.074919 54.569074,17.086249 z M 302.26735,17.588209 C 303.09703,17.588219 303.73735,17.954099 304.13832,18.523699 C 304.53929,19.093299 304.70728,19.875619 304.57184,20.668479 L 303.75044,25.277439 L 302.44989,31.848659 L 301.5144,36.457629 C 301.32968,37.239749 301.04153,37.881879 300.5561,38.328609 C 300.07066,38.775319 299.38401,39.045979 298.36569,39.035929 L 294.85192,39.035929 C 294.8531,39.026339 294.8504,39.024039 294.85192,39.013109 C 294.85952,38.958469 294.88256,38.898669 294.89755,38.807759 C 294.92753,38.625929 294.95545,38.364209 295.01164,38.054809 C 295.12401,37.436009 295.298,36.576999 295.49079,35.567789 C 295.87636,33.549349 296.39126,30.926519 296.90543,28.289239 C 297.41958,25.651989 297.9344,23.011419 298.32007,21.010709 C 298.51289,20.010369 298.66384,19.175429 298.7764,18.569339 C 298.83267,18.266279 298.88303,18.014719 298.9133,17.839209 C 298.92843,17.751429 298.92816,17.686689 298.93612,17.633849 C 298.93764,17.623679 298.93482,17.619529 298.93612,17.611039 C 299.73981,17.610339 301.52184,17.588209 302.26735,17.588209 z M 422.55709,22.972959 L 424.3596,30.388379 C 424.3596,30.473269 424.49286,30.823739 424.40525,30.935989 C 424.33497,31.024519 424.24827,31.048239 424.13144,31.050079 L 422.32892,31.050079 L 419.93317,31.050079 C 419.83095,31.052829 419.75793,31.028169 419.65935,30.935989 C 419.55623,30.837419 419.69497,30.565439 419.72781,30.388379 L 422.53427,23.132679 L 422.55709,22.972959 z M 576.45584,23.338019 L 578.18991,30.388379 C 578.18991,30.397269 578.18917,30.403059 578.18991,30.411199 C 578.19301,30.445469 578.20332,30.464389 578.21273,30.502469 C 578.22439,30.549629 578.2245,30.609379 578.23554,30.662189 C 578.24659,30.714989 578.25778,30.759399 578.25837,30.799089 C 578.25895,30.838779 578.25883,30.866949 578.25837,30.867539 C 578.20296,30.934179 578.16132,30.935209 578.05302,30.935989 L 576.22767,30.935989 L 573.85473,30.935989 C 573.75997,30.939199 573.70652,30.944019 573.62658,30.867539 C 573.62433,30.865449 573.62632,30.870829 573.62658,30.844719 C 573.62683,30.818609 573.63536,30.777209 573.64939,30.730629 C 573.67558,30.643659 573.71676,30.532419 573.74065,30.434029 C 573.74233,30.427069 573.73918,30.418119 573.74065,30.411199 L 576.45584,23.338019 z"
       id="path7552"
       style="fill:#000000;fill-opacity:1;fill-rule:evenodd;stroke:none" />
  </g>
</svg>
