<?xml version="1.0" encoding="UTF-8" standalone="no"?>
<!-- Created with Inkscape (http://www.inkscape.org/) -->

<svg
   xmlns:dc="http://purl.org/dc/elements/1.1/"
   xmlns:cc="http://creativecommons.org/ns#"
   xmlns:rdf="http://www.w3.org/1999/02/22-rdf-syntax-ns#"
   xmlns:svg="http://www.w3.org/2000/svg"
   xmlns="http://www.w3.org/2000/svg"
   xmlns:xlink="http://www.w3.org/1999/xlink"
   xmlns:sodipodi="http://sodipodi.sourceforge.net/DTD/sodipodi-0.dtd"
   xmlns:inkscape="http://www.inkscape.org/namespaces/inkscape"
   width="518"
   height="138"
   id="svg2"
   version="1.1"
   inkscape:version="0.47 r22583"
   sodipodi:docname="Novi list Logo 04.svg">
  <defs
     id="defs4" />
  <sodipodi:namedview
     id="base"
     pagecolor="#ffffff"
     bordercolor="#666666"
     borderopacity="1.0"
     inkscape:pageopacity="0.0"
     inkscape:pageshadow="2"
     inkscape:zoom="2.5226512"
     inkscape:cx="153.78086"
     inkscape:cy="69.900728"
     inkscape:document-units="px"
     inkscape:current-layer="layer1"
     showgrid="false"
     inkscape:window-width="1024"
     inkscape:window-height="749"
     inkscape:window-x="-4"
     inkscape:window-y="-4"
     inkscape:window-maximized="1"
     inkscape:snap-grids="true" />
  <metadata
     id="metadata7">
    <rdf:RDF>
      <cc:Work
         rdf:about="">
        <dc:format>image/svg+xml</dc:format>
        <dc:type
           rdf:resource="http://purl.org/dc/dcmitype/StillImage" />
        <dc:title></dc:title>
        <cc:license
           rdf:resource="http://creativecommons.org/licenses/by-sa/3.0/" />
      </cc:Work>
      <cc:License
         rdf:about="http://creativecommons.org/licenses/by-sa/3.0/">
        <cc:permits
           rdf:resource="http://creativecommons.org/ns#Reproduction" />
        <cc:permits
           rdf:resource="http://creativecommons.org/ns#Distribution" />
        <cc:requires
           rdf:resource="http://creativecommons.org/ns#Notice" />
        <cc:requires
           rdf:resource="http://creativecommons.org/ns#Attribution" />
        <cc:permits
           rdf:resource="http://creativecommons.org/ns#DerivativeWorks" />
        <cc:requires
           rdf:resource="http://creativecommons.org/ns#ShareAlike" />
      </cc:License>
    </rdf:RDF>
  </metadata>
  <g
     inkscape:label="Layer 1"
     inkscape:groupmode="layer"
     id="layer1"
     transform="translate(835.14172,-252.02362)">
    <image
       y="252.02362"
       x="-835.14172"
       id="image3149"
       height="138"
       width="518"
       xlink:href="file:///H:/Home/myDocPict_IE/Impressum_ca_large.png" />
    <g
       id="g3257">
      <path
         style="fill:#ade3f8"
         d="m -835.14172,321.02362 0,-69 259,0 259,0 0,69 0,69 -259,0 -259,0 0,-69 z m 139.63708,29.60185 c 3.37539,-1.52549 7.50669,-4.19748 9.18067,-5.93774 8.52219,-8.85965 11.58209,-24.31422 7.14418,-36.08292 -2.52211,-6.68828 -8.31481,-13.53161 -14.5445,-17.18245 -13.04473,-7.64472 -34.32832,-3.91655 -43.58501,7.63464 -8.88372,11.08576 -9.04679,32.13037 -0.33747,43.54889 2.69256,3.53012 9.14105,7.76584 15.34923,10.0822 6.12719,2.28614 19.43791,1.26143 26.7929,-2.06262 z m -21.22578,-10.4928 c -7.03197,-4.28805 -9.7991,-10.75838 -9.25014,-21.62946 0.31412,-6.22035 0.835,-8.01326 3.38013,-11.63454 8.41532,-11.97353 23.47547,-7.15564 26.42045,8.45217 2.34113,12.40753 -2.23693,23.29619 -10.79401,25.67291 -5.0541,1.40378 -6.20952,1.30181 -9.75643,-0.86108 z m 306.5887,10.30523 c 6.24887,-4.2006 8.70636,-11.02219 6.93921,-19.26214 -1.67166,-7.7947 -5.38068,-12.00201 -15.0313,-17.05074 -10.07873,-5.27268 -11.90791,-6.74065 -11.90791,-9.55639 0,-7.34154 11.10964,-5.52056 13.45245,2.20499 0.59847,1.97349 1.34995,2.25 6.11494,2.25 l 5.43261,0 0,-10 0,-10 -5.41667,0 c -2.97916,0 -5.5737,0.4711 -5.76563,1.0469 -0.2255,0.67651 -1.6588,0.49961 -4.05121,-0.5 -7.67403,-3.20641 -15.58361,-1.27535 -20.34492,4.96704 -2.24805,2.94735 -2.9249,5.02694 -3.23836,9.94974 -0.62804,9.86311 1.50927,12.75257 15.31679,20.70703 8.30716,4.78572 10.5,7.06565 10.5,10.91702 0,3.64616 -3.66022,6.28664 -7.40993,5.34552 -3.43101,-0.86113 -6.59007,-4.9684 -6.59007,-8.56811 0,-2.83517 -0.0628,-2.86514 -6,-2.86514 l -6,0 0,11.5 0,11.5 6,0 c 4.66667,0 6,-0.33333 6,-1.5 0,-1.71303 1.14862,-1.95138 2.56727,-0.53273 1.49428,1.49428 8.54135,2.7766 12.43273,2.26233 1.925,-0.25441 5.075,-1.5213 7,-2.81532 z m -373,-3.41428 0,-6 -3.03138,0 c -1.66727,0 -3.25595,-0.5852 -3.53042,-1.30045 -0.27447,-0.71525 -0.37284,-7.35275 -0.21861,-14.75 l 0.28041,-13.44955 3.08224,5.5 c 1.69523,3.025 7.03808,12.3625 11.87298,20.75 l 8.79074,15.25 7.37702,0 7.37702,0 0,-26.5 0,-26.5 3.5,0 3.5,0 0,-5.5 0,-5.5 -13.5,0 -13.5,0 0,5.5 0,5.5 3.5,0 3.5,0 0,11.5 c 0,6.325 -0.17841,11.5 -0.39648,11.5 -0.21806,0 -4.83056,-7.64544 -10.25,-16.98986 l -9.85352,-16.98986 -12.75,-0.0101 -12.75,-0.0101 0,5.5 0,5.5 3.52071,0 3.5207,0 -0.2707,20.25 -0.27071,20.25 -3.25,-0.01 -3.25,-0.01 0,6.25966 0,6.25967 13.5,0 13.5,0 0,-6 z m 152.36039,-20.5 9.13961,-26 3.25,-0.31336 c 3.22971,-0.3114 3.25,-0.3473 3.25,-5.75 l 0,-5.43664 -14,0 -14,0 0,5.5 c 0,5.2 0.13636,5.5 2.5,5.5 1.375,0 2.50525,0.3375 2.51167,0.75 0.0291,1.87377 -7.41046,22.25 -8.12375,22.25 -0.6566,0 -6.7239,-18.01811 -7.23976,-21.5 -0.0815,-0.55 1.08934,-1.14239 2.60184,-1.31642 2.62377,-0.3019 2.75,-0.56584 2.75,-5.75 l 0,-5.43358 -15,0 -15,0 0,5.5 0,5.5 3.42367,0 3.42367,0 8.82509,26.53879 8.82509,26.53879 6.86163,-0.28879 6.86163,-0.28879 9.13961,-26 z m 53.43733,20.28262 c -0.29531,-6.16701 -0.32202,-6.21764 -3.29772,-6.25 l -3,-0.0326 -0.27092,-19.68508 -0.27093,-19.68508 3.27093,-0.31492 c 3.2384,-0.31179 3.2739,-0.37208 3.57082,-6.06492 l 0.29991,-5.75 -16.04991,0 -16.0499,0 0,6 0,6 4.02114,0 4.02114,0 -0.27114,19.75 -0.27114,19.75 -3.75,0.31036 -3.75,0.31037 0,5.93963 0,5.93964 16.04772,0 16.04771,0 -0.29771,-6.21738 z m 87.20228,-5.28262 0,-11.5 -6,0 -6,0 0,5.5 0,5.5 -8.52071,0 -8.5207,0 0.2707,-20.25 0.27071,-20.25 3.75,-0.31037 3.75,-0.31036 0,-5.43964 0,-5.43963 -16.5,0 -16.5,0 0,5.5 0,5.5 4,0 4,0 0,20.5 0,20.5 -4,0 -4,0 0,6 0,6 27,0 27,0 0,-11.5 z m 38.79772,5.25 c -0.22899,-4.80719 -0.62911,-6.17801 -1.73325,-5.93816 -0.78954,0.17152 -2.47704,0.0504 -3.75,-0.26905 l -2.31447,-0.58089 0,-19.48095 0,-19.48095 3.5,0 3.5,0 0,-6 0,-6 -15.5,0 -15.5,0 0,6 0,6 3.52114,0 3.52114,0 -0.27114,19.75 -0.27114,19.75 -3.25,0.31336 -3.25,0.31336 0,5.93664 0,5.93664 16.04772,0 16.04771,0 -0.29771,-6.25 z m 97.20228,0.25 0,-6 -4,0 -4,0 0,-20.56336 0,-20.56336 3.25,0.31336 c 3.05052,0.29413 3.26887,0.57421 3.5575,4.56336 l 0.3075,4.25 5.9425,0 5.9425,0 0,-10 0,-10 -27.5,0 -27.5,0 0,10 0,10 6,0 6,0 0,-4.56336 c 0,-4.54602 0.0124,-4.56217 3.25,-4.25 l 3.25,0.31336 0,20 0,20 -4.25,0.3075 -4.25,0.3075 0,5.9425 0,5.9425 17,0 17,0 0,-6 z"
         id="path3269" />
      <path
         style="fill:#fcfdfd"
         d="m -835.14172,321.02362 0,-69 259,0 259,0 0,69 0,69 -259,0 -259,0 0,-69 z"
         id="path3273" />
      <path
         style="fill:#02acee;fill-opacity:1"
         d="m -835.14172,252.02362 518,0 0,138 -518,0 0,-138 z m 158,69 c -0.10412,-16.61093 -9.55286,-33.27471 -34,-33 -24.4456,0.27469 -32.59553,18.65031 -32.50744,33 0.0881,14.34969 11.49469,32.09252 32.50744,33 21.01275,0.90748 34.10412,-16.38907 34,-33 z m -34,20 c -7.24516,-0.13175 -14.63202,-7.04919 -15,-20 -0.33857,-11.91603 5.40783,-20.96499 15,-21 9.59217,-0.035 16.39987,6.68291 16,21 -0.39987,14.31709 -8.75484,20.13175 -16,20 z m 296.45308,11.89135 c 10.87558,-3.01941 15.48132,-16.30021 9.61775,-27.73312 -2.55276,-4.97742 -5.34759,-7.33297 -13.57083,-11.43784 -9.96449,-4.97407 -11.95567,-6.76871 -11.13552,-10.03644 1.43381,-5.71279 13.63552,-3.23583 13.63552,3.31605 l 0,2 11,0 0,-20 -11,0 0,3 c 0,0.58793 -2.25919,-1.59979 -3.95034,-2.47432 -4.17344,-2.15817 -11.85084,-1.9443 -15.75964,0.43902 -8.18434,4.99025 -11.1218,16.25443 -6.41671,24.60591 1.8109,3.21431 4.34386,5.26143 12.04105,9.73146 9.52879,5.53371 12.08564,8.20415 12.08564,12.62254 0,2.58175 -2.57406,4.40872 -6.21155,4.40872 -3.88773,0 -7.78845,-1.14578 -7.78845,-5.33333 l 0,-6 -12,0 0,23 12,0 0,-3 c 0,-1.27005 0.37851,0.1322 2.1916,1.10254 5.42396,2.90282 9.51977,3.38289 15.26148,1.78881 z m -368.45308,-11.89135 -7,0 0,-29 24,41 15,0 0,-52 7,0 0,-12 -27,0 0,12.00003 7,0 0,21.99997 -20,-34 -26.00027,0 3.2e-4,12.00003 7,0 0,39.99997 -7,0 0,12 27,0 -10e-6,-12 0,0 0,0 -4e-5,0 z m 161,-40 7,0 0,-12 -28,0 0,12 5,0 -8,21.99979 -7,-21.99979 5,0 0,-12 -30,0 0,12 6.68623,0 17.52392,52 14.20565,0 17.5842,-52 z m 45,40 -7,0 0,-40 7,0 0,-12 -32,0 0,12 7.5,0 0.54319,40 -8.04319,0 0,12 32,0 0,-12 z m 87,-11 -12,0 0,11 -17,0 0,-40 8,0 0,-12 -33,0 0,12 8,0 0,40 -8,0 0,12 54,0 0,-23 z m 39,11 -7,0 0,-40 7,0 0,-12 -32,0 0,12 7,0 0,40 -7,0 0,12 32,0 0,-12 z m 98,0 -9,0 0,-41 7,0 0,9 11,0 0,-20 -54.00005,0 5e-5,20 12,0 0,-9 7,0 0,41 -9,0 0,12 35,0 0,-12 z"
         id="path3267"
         sodipodi:nodetypes="cccccczzzzcszzzcssssccccssssssssccccssccccccccccccccccccccccccccccccccccccccccccccccccccccccccccccccccccccccccccccccccccccccccccccccccccc" />
    </g>
    <path
       style="fill:#000000"
       d=""
       id="path3237" />
  </g>
</svg>
