<svg xmlns="http://www.w3.org/2000/svg" viewBox="0 0 580 200"><path d="M536.4 38.9c-1.1-4.4-3.4-9.1-4-10.1-8.1-13.7-19.3-19.5-37.3-19.5H471v3.5l.8.1c7.8 1.5 15.5 13.1 19.3 20 .6 1 1 2 1.5 3 .6 1.4 1 2.4 1.2 3h-.2c-11.9 0-27.7 1.6-36.2 8.8-9.3 7.7-13.6 20-13.6 38.8 0 14 3.2 35.2 12.3 52.6 10.9 20.8 27.6 31.8 48.6 31.8 18.7 0 31.5-3.2 40.5-10.3 9.8-7.6 14.5-19.9 14.5-37.4 0-11.6-3.1-26.4-9.7-45.4 18.3-.6 20.9-12.1 20.9-24.6V38.7l-34.5.2zm-15.1 76.8c0 4.5-1.5 7.9-4.2 10.1-2.4 1.9-6 2.8-10.2 2.8-4.4 0-8.9-2.2-12.7-6-7.2-7.2-11-19.3-10.9-34.1 0-8.2 8.7-12.7 14.8-12.7 16.3.1 23.2 30.3 23.2 39.9zM182.6 147.2V105c0-2.5 0-5.2.1-7.8.2-18.5.5-37.7-10.5-48.8-6.1-6.2-14.9-9.2-26.9-9.2-17 0-23.9 9.4-29.5 16.9-.4.5-.8 1.1-1.2 1.6-4.6-8.2-12.5-18.4-28.3-18.4-11.3 0-17.9 4.3-26.3 12.8V51.8v-2.5-1.8c-2.8-36.2-19-38-45.1-38H8.5v3.6l.5.3c11.9 7.7 12.8 21.9 12.8 35.9v119.8h38.6V96.7c0-2.8 2.5-12.9 10.6-12.9 3.2 0 5.7.9 7.5 2.8 4.4 4.5 4.3 13.5 4.3 20.1V169h39v-66.2c0-6.2 0-13.8 3.9-17.8 2-2 4.6-2.8 8.1-2.8 2 0 3.6.7 5 2.2 5.7 5.8 5.5 21.6 5.4 26.7v40.4c0 13.8 6.8 18.7 25.8 18.7h14.5l-.3-1.2c-.9-4.4-1.6-13.2-1.6-21.8z"/><path d="M455.5 40.8l-.4-1.9h-35.8c-16.6 0-22.6 23-27.9 43.3-4.1 15.7-8 30.5-15.8 30.5-7.1 0-10.8-8.9-13.8-18.5l-11.6-36.5c-2.7-8.4-12.6-17.1-24.5-17.1h-36.1l2.4 1.8c8.1 5.9 12.2 8.9 19.9 26.6l17.8 56.8c7.5 23.7 16.9 33.9 31.1 33.9 7.3 0 14-2.8 20.7-8.7l-12.1 39.6h43.4l18.8-100.5c5.3-28.2 13.1-44.2 23.9-49.3z"/><path d="M252.5 36.7c-20.1 0-57.5 0-57.5 37.1 0 18.4 12.1 50.6 14.9 57.5h-24.7l.2 1.2c3.8 24.3 7.1 36.2 36 36.3l6.6 21.4h44.2l-8.5-21.4c16.2-.3 50.3-6 50.3-48.3-.2-32.3-16.8-83.8-61.5-83.8zm-18.3 51.1c0-8.8 4.6-12.7 14.8-12.7 18.1 0 26.4 30.4 26.4 39.6 0 3.9-1.5 7.5-4.3 10.2-2.7 2.6-6.5 4.1-10.5 4.1-18.3-.1-26.4-31.6-26.4-41.2z"/></svg>
